<svg id="bold" enable-background="new 0 0 24 24" height="512" viewBox="0 0 24 24" width="512" xmlns="http://www.w3.org/2000/svg"><path d="m23.78 20.47-2.25-2.25c-.473-.473-1.28-.136-1.28.53v1.25h-16.25v-16.25h1.25c.669 0 1.002-.81.53-1.28l-2.25-2.25c-.293-.293-.768-.293-1.061 0l-2.249 2.25c-.471.47-.138 1.28.53 1.28h1.25v16.25h-1c-.553 0-1 .448-1 1s.447 1 1 1h1v1c0 .552.447 1 1 1s1-.448 1-1v-1h16.25v1.25c0 .669.811.999 1.28.53l2.25-2.25c.293-.293.293-.767 0-1.06z"/><path d="m13 4 7 3-7 3-7-3z"/><path d="m12 11.747-6-2.571v5.824c0 .207.127.393.32.467l5.68 2.184z"/><path d="m14 11.747v5.904l5.68-2.185c.193-.073.32-.259.32-.466v-5.824z"/></svg>